<?xml version="1.0" encoding="UTF-8" standalone="no"?>
<!-- Created with Inkscape (http://www.inkscape.org/) -->

<svg
   xmlns:dc="http://purl.org/dc/elements/1.1/"
   xmlns:cc="http://creativecommons.org/ns#"
   xmlns:rdf="http://www.w3.org/1999/02/22-rdf-syntax-ns#"
   xmlns:svg="http://www.w3.org/2000/svg"
   xmlns="http://www.w3.org/2000/svg"
   xmlns:sodipodi="http://sodipodi.sourceforge.net/DTD/sodipodi-0.dtd"
   xmlns:inkscape="http://www.inkscape.org/namespaces/inkscape"
   width="200"
   height="200"
   id="svg2"
   version="1.1"
   inkscape:version="0.48.3.1 r9886"
   sodipodi:docname="br.svg">
  <defs
     id="defs4">
    <marker
       inkscape:stockid="Arrow1Mend"
       orient="auto"
       refY="0.0"
       refX="0.0"
       id="Arrow1Mend"
       style="overflow:visible;">
      <path
         id="path3891"
         d="M 0.0,0.0 L 5.0,-5.0 L -12.5,0.0 L 5.0,5.0 L 0.0,0.0 z "
         style="fill-rule:evenodd;stroke:#000000;stroke-width:1.0pt;"
         transform="scale(0.4) rotate(180) translate(10,0)" />
    </marker>
    <marker
       inkscape:stockid="Arrow2Mend"
       orient="auto"
       refY="0.0"
       refX="0.0"
       id="Arrow2Mend"
       style="overflow:visible;">
      <path
         id="path3909"
         style="fill-rule:evenodd;stroke-width:0.62500000;stroke-linejoin:round;"
         d="M 8.7185878,4.0337352 L -2.2072895,0.016013256 L 8.7185884,-4.0017078 C 6.9730900,-1.6296469 6.9831476,1.6157441 8.7185878,4.0337352 z "
         transform="scale(0.6) rotate(180) translate(0,0)" />
    </marker>
    <inkscape:path-effect
       effect="skeletal"
       id="path-effect3106"
       is_visible="true"
       pattern="M 0,0 0,10 10,5 z"
       copytype="single_stretched"
       prop_scale="1"
       scale_y_rel="false"
       spacing="0"
       normal_offset="0"
       tang_offset="0"
       prop_units="false"
       vertical_pattern="false"
       fuse_tolerance="0" />
  </defs>
  <sodipodi:namedview
     id="base"
     pagecolor="#ffffff"
     bordercolor="#666666"
     borderopacity="1.0"
     inkscape:pageopacity="0.0"
     inkscape:pageshadow="2"
     inkscape:zoom="2.7871926"
     inkscape:cx="105.74103"
     inkscape:cy="106.43919"
     inkscape:document-units="px"
     inkscape:current-layer="layer1"
     showgrid="false"
     inkscape:window-width="1434"
     inkscape:window-height="869"
     inkscape:window-x="0"
     inkscape:window-y="25"
     inkscape:window-maximized="0" />
  <metadata
     id="metadata7">
    <rdf:RDF>
      <cc:Work
         rdf:about="">
        <dc:format>image/svg+xml</dc:format>
        <dc:type
           rdf:resource="http://purl.org/dc/dcmitype/StillImage" />
        <dc:title></dc:title>
      </cc:Work>
    </rdf:RDF>
  </metadata>
  <g
     inkscape:label="Layer 1"
     inkscape:groupmode="layer"
     id="layer1"
     transform="translate(0,-852.36218)">
    <path
       style="fill:#00aad4;stroke:#00ccff;stroke-width:1.71842909px;stroke-linecap:butt;stroke-linejoin:miter;stroke-opacity:1"
       d="m 51.1233,886.72517 c 8.562747,0 16.382033,0 23.522406,0 74.676434,0 75.095604,0 75.095604,0"
       id="path2997"
       inkscape:connector-curvature="0"
       sodipodi:nodetypes="csc" />
    <path
       style="fill:none;stroke:#00ccff;stroke-width:0.9249509px;stroke-linecap:butt;stroke-linejoin:miter;stroke-opacity:1"
       d="m 50.745936,883.15382 0,6.50642"
       id="path2999"
       inkscape:connector-curvature="0" />
    <path
       style="fill:none;stroke:#00ccff;stroke-width:0.9249509px;stroke-linecap:butt;stroke-linejoin:miter;stroke-opacity:1"
       d="m 149.36394,883.57022 0,6.50642"
       id="path2999-9"
       inkscape:connector-curvature="0" />
    <path
       style="fill:#00aad4;stroke:#00ccff;stroke-width:0.82386357px;stroke-linecap:butt;stroke-linejoin:miter;stroke-opacity:1"
       d="m 99.641356,910.41279 c 0,-1.97568 0,-3.77983 0,-5.42733 0,-17.2301 0,-17.32681 0,-17.32681"
       id="path2997-3"
       inkscape:connector-curvature="0"
       sodipodi:nodetypes="csc" />
    <rect
       style="fill:#ffffff;stroke:#000000;stroke-width:0.82435256;stroke-opacity:1"
       id="rect3039"
       width="41.961365"
       height="29.104221"
       x="78.483604"
       y="910.66724"
       ry="13.111306" />
    <g
       transform="scale(1.0537041,0.94903304)"
       style="font-size:18.66884232px;font-style:normal;font-weight:normal;line-height:125%;letter-spacing:0px;word-spacing:0px;fill:#000000;fill-opacity:1;stroke:none;font-family:Bitstream Vera Sans"
       id="text3041">
      <path
         d="m 85.423796,974.80542 0,4.98625 2.953469,0 c 0.990559,0 1.722849,-0.20358 2.196871,-0.61074 0.480081,-0.41324 0.720126,-1.04222 0.720136,-1.88694 -1e-5,-0.85079 -0.240055,-1.47673 -0.720136,-1.87783 -0.474022,-0.40716 -1.206312,-0.61074 -2.196871,-0.61074 l -2.953469,0 m 0,-5.59701 0,4.10204 2.725578,0 c 0.899403,1e-5 1.567883,-0.16711 2.005442,-0.50136 0.443619,-0.34031 0.665433,-0.85686 0.665442,-1.54966 -9e-6,-0.6867 -0.221823,-1.20022 -0.665442,-1.54055 -0.437559,-0.3403 -1.106039,-0.51046 -2.005442,-0.51047 l -2.725578,0 m -1.84136,-1.5132 4.703673,0 c 1.403801,2e-5 2.485523,0.29172 3.24517,0.8751 0.759626,0.58342 1.139444,1.41294 1.139455,2.48857 -1.1e-5,0.83258 -0.194478,1.49498 -0.583401,1.98722 -0.388944,0.49225 -0.960191,0.79914 -1.713741,0.92068 0.905477,0.19447 1.607381,0.60164 2.105714,1.22149 0.504388,0.61379 0.756587,1.38255 0.756598,2.30626 -1.1e-5,1.21542 -0.413253,2.15433 -1.239728,2.81674 -0.826494,0.6624 -2.002411,0.9936 -3.527754,0.9936 l -4.885986,0 0,-13.60966"
         style=""
         id="path5500" />
      <path
         d="m 102.83468,974.92392 c 0.395,0.1337 0.77786,0.41932 1.14857,0.85687 0.37677,0.43756 0.75355,1.03919 1.13034,1.8049 l 1.86871,3.71918 -1.9781,0 -1.74109,-3.49129 c -0.44971,-0.91156 -0.88726,-1.51623 -1.31265,-1.81402 -0.41933,-0.29777 -0.99361,-0.44666 -1.72286,-0.44666 l -2.005438,0 0,5.75197 -1.84136,0 0,-13.60966 4.156738,0 c 1.55573,2e-5 2.71645,0.32514 3.48217,0.97538 0.76571,0.65026 1.14856,1.63171 1.14857,2.94435 -10e-6,0.85688 -0.20055,1.5679 -0.60163,2.13306 -0.39502,0.56518 -0.97234,0.95715 -1.73197,1.17592 m -4.612518,-5.71551 0,4.83129 2.315378,0 c 0.88725,10e-6 1.55573,-0.20357 2.00544,-0.61075 0.45577,-0.41323 0.68366,-1.0179 0.68367,-1.81401 -1e-5,-0.79609 -0.2279,-1.39468 -0.68367,-1.79578 -0.44971,-0.40716 -1.11819,-0.61074 -2.00544,-0.61075 l -2.315378,0"
         style=""
         id="path5502" />
    </g>
    <path
       sodipodi:type="arc"
       style="fill:#ffffff;stroke:#000000;stroke-opacity:1"
       id="path3045"
       sodipodi:cx="91.25"
       sodipodi:cy="107.23214"
       sodipodi:rx="4.8214288"
       sodipodi:ry="4.7321429"
       d="m 96.071429,107.23214 a 4.8214288,4.7321429 0 1 1 -9.642858,0 4.8214288,4.7321429 0 1 1 9.642858,0 z"
       transform="matrix(0.71413505,0,0,0.72760929,21.888748,880.32122)" />
    <path
       sodipodi:type="arc"
       style="fill:#ffffff;stroke:#000000;stroke-opacity:1"
       id="path3045-6"
       sodipodi:cx="91.25"
       sodipodi:cy="107.23214"
       sodipodi:rx="4.8214288"
       sodipodi:ry="4.7321429"
       d="m 96.071429,107.23214 a 4.8214288,4.7321429 0 1 1 -9.642858,0 4.8214288,4.7321429 0 1 1 9.642858,0 z"
       transform="matrix(0.71413505,0,0,0.72760929,60.370891,890.05336)" />
    <path
       sodipodi:type="arc"
       style="fill:#ffffff;stroke:#000000;stroke-opacity:1"
       id="path3045-1"
       sodipodi:cx="91.25"
       sodipodi:cy="107.23214"
       sodipodi:rx="4.8214288"
       sodipodi:ry="4.7321429"
       d="m 96.071429,107.23214 a 4.8214288,4.7321429 0 1 1 -9.642858,0 4.8214288,4.7321429 0 1 1 9.642858,0 z"
       transform="matrix(0.71413505,0,0,0.72760929,38.406606,914.69622)" />
    <path
       sodipodi:type="arc"
       style="fill:#ffffff;stroke:#000000;stroke-opacity:1"
       id="path3045-68"
       sodipodi:cx="91.25"
       sodipodi:cy="107.23214"
       sodipodi:rx="4.8214288"
       sodipodi:ry="4.7321429"
       d="m 96.071429,107.23214 a 4.8214288,4.7321429 0 1 1 -9.642858,0 4.8214288,4.7321429 0 1 1 9.642858,0 z"
       transform="matrix(0.71413505,0,0,0.72760929,-6.5933947,914.69622)" />
    <path
       sodipodi:type="arc"
       style="fill:#ffffff;stroke:#000000;stroke-opacity:1"
       id="path3045-8"
       sodipodi:cx="91.25"
       sodipodi:cy="107.23214"
       sodipodi:rx="4.8214288"
       sodipodi:ry="4.7321429"
       d="m 96.071429,107.23214 a 4.8214288,4.7321429 0 1 1 -9.642858,0 4.8214288,4.7321429 0 1 1 9.642858,0 z"
       transform="matrix(0.71413505,0,0,0.72760929,78.224752,934.87316)" />
    <path
       sodipodi:type="arc"
       style="fill:#ffffff;stroke:#000000;stroke-opacity:1"
       id="path3045-11"
       sodipodi:cx="91.25"
       sodipodi:cy="107.23214"
       sodipodi:rx="4.8214288"
       sodipodi:ry="4.7321429"
       d="m 96.071429,107.23214 a 4.8214288,4.7321429 0 1 1 -9.642858,0 4.8214288,4.7321429 0 1 1 9.642858,0 z"
       transform="matrix(0.71413505,0,0,0.72760929,21.620891,950.58908)" />
    <path
       sodipodi:type="arc"
       style="fill:#ffffff;stroke:#000000;stroke-opacity:1"
       id="path3045-685"
       sodipodi:cx="91.25"
       sodipodi:cy="107.23214"
       sodipodi:rx="4.8214288"
       sodipodi:ry="4.7321429"
       d="m 96.071429,107.23214 a 4.8214288,4.7321429 0 1 1 -9.642858,0 4.8214288,4.7321429 0 1 1 9.642858,0 z"
       transform="matrix(0.71413505,0,0,0.72760929,-27.924795,892.14817)" />
    <path
       style="fill:none;stroke:#cccccc;stroke-width:1.02099999999999991;stroke-linecap:butt;stroke-linejoin:miter;stroke-opacity:1;stroke-miterlimit:4;stroke-dasharray:none;marker-end:none"
       d="m 40.921656,969.26665 42.152914,-9.5694 -0.25703,-0.25862"
       id="path3108"
       inkscape:connector-curvature="0" />
    <path
       style="fill:none;stroke:#cccccc;stroke-width:1px;stroke-linecap:butt;stroke-linejoin:miter;stroke-opacity:1"
       d="m 40.153564,120.95556 c 15.657364,16.92006 15.657364,16.92006 15.657364,16.92006"
       id="path5430"
       inkscape:connector-curvature="0"
       transform="translate(0,852.36218)" />
    <path
       style="fill:none;stroke:#cccccc;stroke-width:1px;stroke-linecap:butt;stroke-linejoin:miter;stroke-opacity:1"
       d="m 61.871843,137.62308 c 22.728433,-28.03173 22.728433,-28.03173 22.728433,-28.03173 l 0.252538,0"
       id="path5452"
       inkscape:connector-curvature="0"
       transform="translate(0,852.36218)" />
    <path
       style="fill:none;stroke:#cccccc;stroke-width:1px;stroke-linecap:butt;stroke-linejoin:miter;stroke-opacity:1"
       d="m 88.13581,109.84389 c 13.13198,26.26396 13.13198,26.26396 13.13198,26.26396"
       id="path5454"
       inkscape:connector-curvature="0"
       transform="translate(0,852.36218)" />
    <path
       style="fill:none;stroke:#cccccc;stroke-width:1px;stroke-linecap:butt;stroke-linejoin:miter;stroke-opacity:1"
       d="M 62.124382,140.65354 C 98.99495,140.14846 98.99495,140.14846 98.99495,140.14846"
       id="path5456"
       inkscape:connector-curvature="0"
       transform="translate(0,852.36218)" />
    <path
       style="fill:#cccccc;stroke:#cccccc;stroke-width:1px;stroke-linecap:butt;stroke-linejoin:miter;stroke-opacity:1"
       d="M 89.3985,102.0152 C 98.237335,88.378144 98.237335,88.378144 98.237335,88.378144"
       id="path5458"
       inkscape:connector-curvature="0"
       transform="translate(0,852.36218)" />
    <path
       style="fill:none;stroke:#cccccc;stroke-width:1px;stroke-linecap:butt;stroke-linejoin:miter;stroke-opacity:1"
       d="m 120.96577,114.89465 c -29.546965,-8.83884 -29.546965,-8.5863 -29.546965,-8.5863"
       id="path5460"
       inkscape:connector-curvature="0"
       transform="translate(0,852.36218)" />
    <path
       style="fill:none;stroke:#cccccc;stroke-width:1px;stroke-linecap:butt;stroke-linejoin:miter;stroke-opacity:1"
       d="m 106.82363,137.62308 c 15.9099,-18.18275 15.9099,-18.43528 15.9099,-18.43528"
       id="path5462"
       inkscape:connector-curvature="0"
       transform="translate(0,852.36218)" />
    <path
       style="fill:none;stroke:#cccccc;stroke-width:1px;stroke-linecap:butt;stroke-linejoin:miter;stroke-opacity:1"
       d="m 127.53176,119.44033 c 14.64721,37.12311 14.39467,37.12311 14.39467,37.12311"
       id="path5464"
       inkscape:connector-curvature="0"
       transform="translate(0,852.36218)" />
    <path
       style="fill:none;stroke:#cccccc;stroke-width:1px;stroke-linecap:butt;stroke-linejoin:miter;stroke-opacity:1"
       d="m 107.32871,142.16877 c 32.07234,16.16244 32.07234,16.41498 32.07234,16.41498"
       id="path5466"
       inkscape:connector-curvature="0"
       transform="translate(0,852.36218)" />
    <path
       style="fill:none;stroke:#cccccc;stroke-width:1px;stroke-linecap:butt;stroke-linejoin:miter;stroke-opacity:1"
       d="M 102.27795,144.69415 C 89.651038,172.2208 89.651038,172.2208 89.651038,172.2208"
       id="path5468"
       inkscape:connector-curvature="0"
       transform="translate(0,852.36218)" />
    <g
       style="font-size:4px;font-style:normal;font-weight:normal;line-height:125%;letter-spacing:0px;word-spacing:0px;fill:#000000;fill-opacity:1;stroke:none;font-family:Bitstream Vera Sans"
       id="text5470">
      <path
         d="m 90.44735,880.81769 0.394531,0 0,2.91601 -0.394531,0 0,-2.91601"
         style=""
         id="path5550" />
      <path
         d="m 91.627037,880.81769 0.53125,0 1.292969,2.43945 0,-2.43945 0.382812,0 0,2.91601 -0.53125,0 -1.292968,-2.43945 0,2.43945 -0.382813,0 0,-2.91601"
         style=""
         id="path5552" />
      <path
         d="m 94.214928,880.81769 2.466797,0 0,0.33203 -1.035157,0 0,2.58398 -0.396484,0 0,-2.58398 -1.035156,0 0,-0.33203"
         style=""
         id="path5554" />
      <path
         d="m 97.064537,880.81769 1.84375,0 0,0.33203 -1.449219,0 0,0.86328 1.388672,0 0,0.33203 -1.388672,0 0,1.05664 1.484375,0 0,0.33203 -1.878906,0 0,-2.91601"
         style=""
         id="path5556" />
      <path
         d="m 100.9786,882.36652 c 0.0846,0.0286 0.16666,0.0898 0.24609,0.18359 0.0807,0.0937 0.16146,0.22266 0.24219,0.38672 l 0.40039,0.79687 -0.42383,0 -0.37304,-0.74804 c -0.0964,-0.19531 -0.19011,-0.32487 -0.28125,-0.38868 -0.0899,-0.0638 -0.2129,-0.0957 -0.36914,-0.0957 l -0.429692,0 0,1.23242 -0.394531,0 0,-2.91601 0.890623,0 c 0.33333,0 0.58203,0.0697 0.7461,0.20898 0.16406,0.13933 0.24609,0.34961 0.24609,0.63086 0,0.1836 -0.043,0.33594 -0.12891,0.45703 -0.0846,0.1211 -0.20833,0.20508 -0.37109,0.25196 m -0.988282,-1.22461 0,1.03515 0.496092,0 c 0.1901,0 0.33333,-0.0436 0.42969,-0.13086 0.0977,-0.0885 0.14648,-0.21809 0.14648,-0.38867 0,-0.17057 -0.0488,-0.29882 -0.14648,-0.38476 -0.0964,-0.0872 -0.23959,-0.13086 -0.42969,-0.13086 l -0.496092,0"
         style=""
         id="path5558" />
      <path
         d="m 102.37704,880.81769 0.53125,0 1.29297,2.43945 0,-2.43945 0.38281,0 0,2.91601 -0.53125,0 -1.29297,-2.43945 0,2.43945 -0.38281,0 0,-2.91601"
         style=""
         id="path5560" />
      <path
         d="m 105.36922,880.81769 1.84375,0 0,0.33203 -1.44921,0 0,0.86328 1.38867,0 0,0.33203 -1.38867,0 0,1.05664 1.48437,0 0,0.33203 -1.87891,0 0,-2.91601"
         style=""
         id="path5562" />
      <path
         d="m 107.49618,880.81769 2.46679,0 0,0.33203 -1.03515,0 0,2.58398 -0.39649,0 0,-2.58398 -1.03515,0 0,-0.33203"
         style=""
         id="path5564" />
    </g>
    <g
       style="font-size:4px;font-style:normal;font-weight:normal;line-height:125%;letter-spacing:0px;word-spacing:0px;fill:#000000;fill-opacity:1;stroke:none;font-family:Bitstream Vera Sans"
       id="text5474">
      <path
         d="m 99.416954,946.47516 0.394531,0 0,2.58398 1.419925,0 0,0.33203 -1.814456,0 0,-2.91601"
         style=""
         id="path5517" />
      <path
         d="m 102.40524,947.45563 c -0.19271,0 -0.34506,0.0755 -0.45704,0.22656 -0.11198,0.14974 -0.16797,0.35547 -0.16796,0.61719 -1e-5,0.26172 0.0553,0.4681 0.16601,0.61914 0.11198,0.14974 0.26497,0.22461 0.45899,0.22461 0.1914,0 0.34309,-0.0755 0.45507,-0.22657 0.11198,-0.15104 0.16797,-0.35677 0.16797,-0.61718 0,-0.25912 -0.056,-0.46419 -0.16797,-0.61524 -0.11198,-0.15234 -0.26367,-0.22851 -0.45507,-0.22851 m 0,-0.30469 c 0.31249,0 0.55794,0.10156 0.73632,0.30469 0.17839,0.20312 0.26758,0.48437 0.26758,0.84375 0,0.35807 -0.0892,0.63932 -0.26758,0.84375 -0.17838,0.20312 -0.42383,0.30468 -0.73632,0.30468 -0.31381,0 -0.5599,-0.10156 -0.73829,-0.30468 -0.17708,-0.20443 -0.26562,-0.48568 -0.26562,-0.84375 0,-0.35938 0.0885,-0.64063 0.26562,-0.84375 0.17839,-0.20313 0.42448,-0.30469 0.73829,-0.30469"
         style=""
         id="path5519" />
      <path
         d="m 103.79391,947.20367 0.35937,0 0.44922,1.70704 0.44727,-1.70704 0.42382,0 0.44922,1.70704 0.44727,-1.70704 0.35937,0 -0.57226,2.1875 -0.42383,0 -0.4707,-1.79296 -0.47266,1.79296 -0.42383,0 -0.57226,-2.1875"
         style=""
         id="path5521" />
      <path
         d="m 107.62399,949.06305 0,1.16016 -0.36133,0 0,-3.01954 0.36133,0 0,0.33204 c 0.0755,-0.13021 0.17057,-0.22656 0.28515,-0.28907 0.11589,-0.0638 0.25391,-0.0957 0.41406,-0.0957 0.26563,0 0.48112,0.10547 0.64649,0.31641 0.16666,0.21094 0.25,0.48828 0.25,0.83203 0,0.34375 -0.0833,0.62109 -0.25,0.83203 -0.16537,0.21094 -0.38086,0.3164 -0.64649,0.3164 -0.16015,0 -0.29817,-0.0312 -0.41406,-0.0937 -0.11458,-0.0638 -0.20963,-0.1608 -0.28515,-0.29101 m 1.22265,-0.76367 c 0,-0.26432 -0.0547,-0.47136 -0.16406,-0.6211 -0.10808,-0.15104 -0.25716,-0.22656 -0.44727,-0.22656 -0.1901,0 -0.33984,0.0755 -0.44922,0.22656 -0.10807,0.14974 -0.16211,0.35678 -0.1621,0.6211 -1e-5,0.26432 0.054,0.472 0.1621,0.62304 0.10938,0.14974 0.25912,0.22461 0.44922,0.22461 0.19011,0 0.33919,-0.0749 0.44727,-0.22461 0.10937,-0.15104 0.16406,-0.35872 0.16406,-0.62304"
         style=""
         id="path5523" />
      <path
         d="m 110.66305,947.45563 c -0.19271,0 -0.34506,0.0755 -0.45703,0.22656 -0.11198,0.14974 -0.16797,0.35547 -0.16797,0.61719 0,0.26172 0.0553,0.4681 0.16601,0.61914 0.11198,0.14974 0.26498,0.22461 0.45899,0.22461 0.1914,0 0.3431,-0.0755 0.45508,-0.22657 0.11197,-0.15104 0.16796,-0.35677 0.16796,-0.61718 0,-0.25912 -0.056,-0.46419 -0.16796,-0.61524 -0.11198,-0.15234 -0.26368,-0.22851 -0.45508,-0.22851 m 0,-0.30469 c 0.3125,0 0.55794,0.10156 0.73633,0.30469 0.17838,0.20312 0.26757,0.48437 0.26757,0.84375 0,0.35807 -0.0892,0.63932 -0.26757,0.84375 -0.17839,0.20312 -0.42383,0.30468 -0.73633,0.30468 -0.31381,0 -0.5599,-0.10156 -0.73828,-0.30468 -0.17709,-0.20443 -0.26563,-0.48568 -0.26563,-0.84375 0,-0.35938 0.0885,-0.64063 0.26563,-0.84375 0.17838,-0.20313 0.42447,-0.30469 0.73828,-0.30469"
         style=""
         id="path5525" />
      <path
         d="m 112.05172,947.20367 0.35937,0 0.44922,1.70704 0.44727,-1.70704 0.42383,0 0.44922,1.70704 0.44726,-1.70704 0.35938,0 -0.57227,2.1875 -0.42383,0 -0.4707,-1.79296 -0.47266,1.79296 -0.42382,0 -0.57227,-2.1875"
         style=""
         id="path5527" />
      <path
         d="m 117.40524,948.20758 0,0.17578 -1.65235,0 c 0.0156,0.2474 0.0898,0.4362 0.22266,0.56641 0.13411,0.1289 0.32031,0.19336 0.55859,0.19336 0.13802,0 0.27148,-0.0169 0.40039,-0.0508 0.13021,-0.0339 0.25911,-0.0846 0.38672,-0.15235 l 0,0.33985 c -0.12891,0.0547 -0.26107,0.0964 -0.39648,0.125 -0.13542,0.0286 -0.27279,0.043 -0.41211,0.043 -0.34896,0 -0.62565,-0.10156 -0.83008,-0.30468 -0.20313,-0.20313 -0.30469,-0.47787 -0.30469,-0.82422 0,-0.35807 0.0964,-0.64193 0.28906,-0.85156 0.19401,-0.21094 0.45508,-0.31641 0.78321,-0.31641 0.29427,0 0.52669,0.0951 0.69726,0.28516 0.17188,0.1888 0.25781,0.44596 0.25782,0.77148 m -0.35938,-0.10547 c -0.003,-0.19661 -0.0579,-0.35351 -0.16602,-0.4707 -0.10677,-0.11719 -0.24869,-0.17578 -0.42578,-0.17578 -0.20052,0 -0.36133,0.0566 -0.48242,0.16992 -0.11979,0.11328 -0.1888,0.27279 -0.20703,0.47851 l 1.28125,-0.002"
         style=""
         id="path5529" />
      <path
         d="m 119.26266,947.53961 c -0.0404,-0.0234 -0.0846,-0.0404 -0.13282,-0.0508 -0.0469,-0.0117 -0.099,-0.0176 -0.15625,-0.0176 -0.20312,0 -0.35937,0.0664 -0.46875,0.19922 -0.10807,0.13151 -0.16211,0.32097 -0.1621,0.56836 l 0,1.15234 -0.36133,0 0,-2.1875 0.36133,0 0,0.33985 c 0.0755,-0.13281 0.17382,-0.23112 0.29492,-0.29492 0.12109,-0.0651 0.26823,-0.0977 0.4414,-0.0977 0.0247,0 0.0521,0.002 0.082,0.006 0.0299,0.003 0.0631,0.007 0.0996,0.0137 l 0.002,0.36914"
         style=""
         id="path5531" />
      <path
         d="m 99.416954,951.47516 0.394531,0 0,2.91601 -0.394531,0 0,-2.91601"
         style=""
         id="path5533" />
      <path
         d="m 102.39938,953.07086 0,1.32031 -0.35938,0 0,-1.30859 c 0,-0.20703 -0.0404,-0.36198 -0.12109,-0.46484 -0.0807,-0.10287 -0.20183,-0.1543 -0.36328,-0.1543 -0.19402,0 -0.34701,0.0619 -0.45899,0.18555 -0.11198,0.1237 -0.16797,0.29232 -0.16797,0.50586 l 0,1.23632 -0.36133,0 0,-2.1875 0.36133,0 0,0.33985 c 0.0859,-0.13151 0.18685,-0.22982 0.30274,-0.29492 0.11718,-0.0651 0.25195,-0.0977 0.40429,-0.0977 0.2513,0 0.44141,0.0781 0.57032,0.23437 0.1289,0.15495 0.19335,0.38347 0.19336,0.68555"
         style=""
         id="path5535" />
      <path
         d="m 103.47555,951.58258 0,0.62109 0.74023,0 0,0.2793 -0.74023,0 0,1.1875 c 0,0.17839 0.0241,0.29297 0.0723,0.34375 0.0495,0.0508 0.14909,0.0762 0.29883,0.0762 l 0.36914,0 0,0.30078 -0.36914,0 c -0.27734,0 -0.46875,-0.0514 -0.57422,-0.15429 -0.10547,-0.10417 -0.1582,-0.29297 -0.1582,-0.56641 l 0,-1.1875 -0.26367,0 0,-0.2793 0.26367,0 0,-0.62109 0.36133,0"
         style=""
         id="path5537" />
      <path
         d="m 106.56149,953.20758 0,0.17578 -1.65235,0 c 0.0156,0.2474 0.0898,0.4362 0.22266,0.56641 0.13411,0.1289 0.32031,0.19336 0.55859,0.19336 0.13802,0 0.27148,-0.0169 0.40039,-0.0508 0.13021,-0.0339 0.25911,-0.0846 0.38672,-0.15235 l 0,0.33985 c -0.12891,0.0547 -0.26107,0.0964 -0.39648,0.125 -0.13542,0.0286 -0.27279,0.043 -0.41211,0.043 -0.34896,0 -0.62565,-0.10156 -0.83008,-0.30468 -0.20313,-0.20313 -0.30469,-0.47787 -0.30469,-0.82422 0,-0.35807 0.0964,-0.64193 0.28906,-0.85156 0.19401,-0.21094 0.45508,-0.31641 0.78321,-0.31641 0.29427,0 0.52669,0.0951 0.69726,0.28516 0.17188,0.1888 0.25781,0.44596 0.25782,0.77148 m -0.35938,-0.10547 c -0.003,-0.19661 -0.0579,-0.35351 -0.16602,-0.4707 -0.10677,-0.11719 -0.24869,-0.17578 -0.42578,-0.17578 -0.20052,0 -0.36133,0.0566 -0.48242,0.16992 -0.11979,0.11328 -0.1888,0.27279 -0.20703,0.47851 l 1.28125,-0.002"
         style=""
         id="path5539" />
      <path
         d="m 108.41891,952.53961 c -0.0404,-0.0234 -0.0846,-0.0404 -0.13282,-0.0508 -0.0469,-0.0117 -0.099,-0.0176 -0.15625,-0.0176 -0.20312,0 -0.35937,0.0664 -0.46875,0.19922 -0.10807,0.13151 -0.16211,0.32097 -0.1621,0.56836 l 0,1.15234 -0.36133,0 0,-2.1875 0.36133,0 0,0.33985 c 0.0755,-0.13281 0.17382,-0.23112 0.29492,-0.29492 0.12109,-0.0651 0.26823,-0.0977 0.4414,-0.0977 0.0247,0 0.0521,0.002 0.082,0.006 0.0299,0.003 0.0631,0.007 0.0996,0.0137 l 0.002,0.36914"
         style=""
         id="path5541" />
      <path
         d="m 110.54781,953.07086 0,1.32031 -0.35937,0 0,-1.30859 c 0,-0.20703 -0.0404,-0.36198 -0.1211,-0.46484 -0.0807,-0.10287 -0.20182,-0.1543 -0.36328,-0.1543 -0.19401,0 -0.347,0.0619 -0.45898,0.18555 -0.11198,0.1237 -0.16797,0.29232 -0.16797,0.50586 l 0,1.23632 -0.36133,0 0,-2.1875 0.36133,0 0,0.33985 c 0.0859,-0.13151 0.18685,-0.22982 0.30273,-0.29492 0.11719,-0.0651 0.25196,-0.0977 0.4043,-0.0977 0.2513,0 0.44141,0.0781 0.57031,0.23437 0.12891,0.15495 0.19336,0.38347 0.19336,0.68555"
         style=""
         id="path5543" />
      <path
         d="m 113.13961,953.20758 0,0.17578 -1.65234,0 c 0.0156,0.2474 0.0898,0.4362 0.22265,0.56641 0.13412,0.1289 0.32031,0.19336 0.5586,0.19336 0.13802,0 0.27148,-0.0169 0.40039,-0.0508 0.1302,-0.0339 0.25911,-0.0846 0.38672,-0.15235 l 0,0.33985 c -0.12891,0.0547 -0.26107,0.0964 -0.39649,0.125 -0.13542,0.0286 -0.27279,0.043 -0.41211,0.043 -0.34896,0 -0.62565,-0.10156 -0.83008,-0.30468 -0.20312,-0.20313 -0.30468,-0.47787 -0.30468,-0.82422 0,-0.35807 0.0964,-0.64193 0.28906,-0.85156 0.19401,-0.21094 0.45508,-0.31641 0.7832,-0.31641 0.29427,0 0.52669,0.0951 0.69727,0.28516 0.17187,0.1888 0.25781,0.44596 0.25781,0.77148 m -0.35937,-0.10547 c -0.003,-0.19661 -0.058,-0.35351 -0.16602,-0.4707 -0.10677,-0.11719 -0.2487,-0.17578 -0.42578,-0.17578 -0.20052,0 -0.36133,0.0566 -0.48242,0.16992 -0.1198,0.11328 -0.18881,0.27279 -0.20703,0.47851 l 1.28125,-0.002"
         style=""
         id="path5545" />
      <path
         d="m 114.08492,951.58258 0,0.62109 0.74024,0 0,0.2793 -0.74024,0 0,1.1875 c 0,0.17839 0.0241,0.29297 0.0723,0.34375 0.0495,0.0508 0.14909,0.0762 0.29883,0.0762 l 0.36914,0 0,0.30078 -0.36914,0 c -0.27735,0 -0.46875,-0.0514 -0.57422,-0.15429 -0.10547,-0.10417 -0.15821,-0.29297 -0.15821,-0.56641 l 0,-1.1875 -0.26367,0 0,-0.2793 0.26367,0 0,-0.62109 0.36133,0"
         style=""
         id="path5547" />
    </g>
  </g>
</svg>
