<?xml version="1.0" encoding="UTF-8" standalone="no"?>
<!-- Created with Inkscape (http://www.inkscape.org/) -->

<svg
   xmlns:dc="http://purl.org/dc/elements/1.1/"
   xmlns:cc="http://creativecommons.org/ns#"
   xmlns:rdf="http://www.w3.org/1999/02/22-rdf-syntax-ns#"
   xmlns:svg="http://www.w3.org/2000/svg"
   xmlns="http://www.w3.org/2000/svg"
   xmlns:xlink="http://www.w3.org/1999/xlink"
   xmlns:sodipodi="http://sodipodi.sourceforge.net/DTD/sodipodi-0.dtd"
   xmlns:inkscape="http://www.inkscape.org/namespaces/inkscape"
   version="1.1"
   width="400"
   height="8"
   id="svg2"
   inkscape:version="0.48.3.1 r9886"
   sodipodi:docname="hr.svg">
  <metadata
     id="metadata12">
    <rdf:RDF>
      <cc:Work
         rdf:about="">
        <dc:format>image/svg+xml</dc:format>
        <dc:type
           rdf:resource="http://purl.org/dc/dcmitype/StillImage" />
      </cc:Work>
    </rdf:RDF>
  </metadata>
  <sodipodi:namedview
     pagecolor="#ffffff"
     bordercolor="#666666"
     borderopacity="1"
     objecttolerance="10"
     gridtolerance="10"
     guidetolerance="10"
     inkscape:pageopacity="0"
     inkscape:pageshadow="2"
     inkscape:window-width="1434"
     inkscape:window-height="352"
     id="namedview10"
     showgrid="false"
     inkscape:zoom="3.91"
     inkscape:cx="184.4783"
     inkscape:cy="9.5024892"
     inkscape:window-x="0"
     inkscape:window-y="25"
     inkscape:window-maximized="0"
     inkscape:current-layer="svg2" />
  <defs
     id="defs4" />
  <g
     transform="translate(0,-1044.3622)"
     id="layer1"
     style="fill:#cccccc;stroke:#cccccc">
    <path
       d="m 186.84375,1046.1747 c 0,0 -50.34375,2.6875 -140.34375,2.6875 90,0 140.34375,2.6875 140.34375,2.6875 0,0 4.98697,-2.4986 19.65625,-2.6875 -14.66928,-0.1889 -19.65625,-2.6875 -19.65625,-2.6875 z"
       id="path2874"
       style="fill:#cccccc;fill-opacity:1;stroke:#cccccc" />
    <path
       d="m 5,1048.8622 195,0"
       id="path2870"
       style="fill:#cccccc;stroke:#cccccc;stroke-width:1" />
    <path
       d="m 205,12.5 a 2.5,2.5 0 1 1 -5,0 2.5,2.5 0 1 1 5,0 z"
       transform="translate(-2.5,1036.3622)"
       id="path2872"
       style="fill:#cccccc;stroke:#cccccc" />
    <use
       transform="matrix(-1,0,0,1,400,0)"
       id="use2879"
       x="0"
       y="0"
       width="400"
       height="20"
       xlink:href="#path2874"
       style="fill:#cccccc;stroke:#cccccc" />
    <use
       transform="matrix(-1,0,0,1,400,0)"
       id="use2881"
       x="0"
       y="0"
       width="400"
       height="20"
       xlink:href="#path2870"
       style="fill:#cccccc;stroke:#cccccc" />
  </g>
</svg>
